[Header]
FileType HTR
DataType HTRS
FileVersion 1
NumSegments 48
NumFrames 3
DataFrameRate 30
EulerRotationOrder ZYX
CalibrationUnits mm
RotationUnits Degrees
GlobalAxisofGravity Y
BoneLengthAxis Y
ScaleFactor 1.0
[SegmentNames&Hierarchy]
Wolf	GLOBAL
Becken	Wolf
Bauch	Becken
Bauch_001	Bauch
Brust	Bauch_001
Hals	Brust
Kopf_002	Hals
Kopf	Kopf_002
Unterkiefer	Kopf
Hals_fett	Unterkiefer
Maulunten	Unterkiefer
Mauloben	Kopf
MundW_L	Kopf
MundW_R	Kopf
Augen_con	Kopf
IK_Aug_R	Augen_con
IK_Aug_L	Augen_con
Aug_R	Kopf
aug_L	Kopf
Ohr_L	Kopf
Ohr_R	Kopf
Braun_O_L	Kopf
Braun_O_R	Kopf
aug_lied_O_L	Kopf
aug_lied_O_R	Kopf
aug_lied_U_L	Kopf
aug_lied_U_R	Kopf
Bauch_003	Brust
Schalterplatte_L	Bauch_003
Oberarm_L	Schalterplatte_L
Unterarm_L	Oberarm_L
Vorderpfote_L	Unterarm_L
Schalterplatte_R	Bauch_003
Oberarm_R	Schalterplatte_R
Unterarm_R	Oberarm_R
Vorderpfote_R	Unterarm_R
Schwanz	Becken
Schwanz_001	Schwanz
Schwanz_002	Schwanz_001
Schwanz_003	Schwanz_002
Oberschenkel_L	Becken
Unterschenkel_L	Oberschenkel_L
Pfote1_L	Unterschenkel_L
Pfote2_L	Pfote1_L
Oberschenkel_R	Becken
Unterschenkel_R	Oberschenkel_R
Pfote1_R	Unterschenkel_R
Pfote2_R	Pfote1_R
[BasePosition]
Wolf	0	0	0	0	0	0	1
Becken	0	0	0	0	0	0	1
Bauch	0	0	0	0	0	0	1
Bauch_001	0	0	0	0	0	0	1
Brust	0	0	0	0	0	0	1
Hals	0	0	0	0	0	0	1
Kopf_002	0	0	0	0	0	0	1
Kopf	0	0	0	0	0	0	1
Unterkiefer	0	0	0	0	0	0	1
Hals_fett	0	0	0	0	0	0	1
Maulunten	0	0	0	0	0	0	1
Mauloben	0	0	0	0	0	0	1
MundW_L	0	0	0	0	0	0	1
MundW_R	0	0	0	0	0	0	1
Augen_con	0	0	0	0	0	0	1
IK_Aug_R	0	0	0	0	0	0	1
IK_Aug_L	0	0	0	0	0	0	1
Aug_R	0	0	0	0	0	0	1
aug_L	0	0	0	0	0	0	1
Ohr_L	0	0	0	0	0	0	1
Ohr_R	0	0	0	0	0	0	1
Braun_O_L	0	0	0	0	0	0	1
Braun_O_R	0	0	0	0	0	0	1
aug_lied_O_L	0	0	0	0	0	0	1
aug_lied_O_R	0	0	0	0	0	0	1
aug_lied_U_L	0	0	0	0	0	0	1
aug_lied_U_R	0	0	0	0	0	0	1
Bauch_003	0	0	0	0	0	0	1
Schalterplatte_L	0	0	0	0	0	0	1
Oberarm_L	0	0	0	0	0	0	1
Unterarm_L	0	0	0	0	0	0	1
Vorderpfote_L	0	0	0	0	0	0	1
Schalterplatte_R	0	0	0	0	0	0	1
Oberarm_R	0	0	0	0	0	0	1
Unterarm_R	0	0	0	0	0	0	1
Vorderpfote_R	0	0	0	0	0	0	1
Schwanz	0	0	0	0	0	0	1
Schwanz_001	0	0	0	0	0	0	1
Schwanz_002	0	0	0	0	0	0	1
Schwanz_003	0	0	0	0	0	0	1
Oberschenkel_L	0	0	0	0	0	0	1
Unterschenkel_L	0	0	0	0	0	0	1
Pfote1_L	0	0	0	0	0	0	1
Pfote2_L	0	0	0	0	0	0	1
Oberschenkel_R	0	0	0	0	0	0	1
Unterschenkel_R	0	0	0	0	0	0	1
Pfote1_R	0	0	0	0	0	0	1
Pfote2_R	0	0	0	0	0	0	1
[Wolf]
1	0	0	0	-90	-0	0	1.0
2	0	0	0	-90	-0	0	1.0
3	0	0	0	-90	-0	0	1.0
[Becken]
1	0	0.3933000565	-0.3618498445	-2.067962885	164.4212189	89.26520538	1.0
2	0	0.3918360174	-0.3593218029	-2.067962885	164.4212189	89.26520538	1.0
3	0	0.3881639838	-0.3529778421	-2.067962885	164.4212189	89.26520538	1.0
[Bauch]
1	0.9984878302	-0.00741992658	-0.150611341	-6.458931239e-07	12.60522842	-8.201818247e-08	1.0
2	0.9984878302	-0.00741992658	-0.150611341	-6.458931239e-07	12.60522842	-8.201818247e-08	1.0
3	0.9984878302	-0.00741992658	-0.150611341	-6.458931239e-07	12.60522842	-8.201818247e-08	1.0
[Bauch_001]
1	1.071342349	0.006600080058	-0.1893585622	-1.568805601e-07	2.360082865	-2.503413654e-08	1.0
2	1.071342349	0.006600080058	-0.1893585622	-1.568805601e-07	2.360082865	-2.503413654e-08	1.0
3	1.071342349	0.006600080058	-0.1893585622	-1.568805601e-07	2.360082865	-2.503413654e-08	1.0
[Brust]
1	1.41907382	-0.01381989196	0.3623858392	3.618613846e-06	10.7627573	-4.096809789e-05	1.0
2	1.41907382	-0.01381989196	0.3623858392	3.618613846e-06	10.7627573	-4.096809789e-05	1.0
3	1.41907382	-0.01381989196	0.3623858392	3.618613846e-06	10.7627573	-4.096809789e-05	1.0
[Hals]
1	1.1844244	-0.01484991144	1.02827692	-4.51789947e-06	46.87745285	-2.16624926e-06	1.0
2	1.1844244	-0.01484991144	1.02827692	-4.51789947e-06	46.87745285	-2.16624926e-06	1.0
3	1.1844244	-0.01484991144	1.02827692	-4.51789947e-06	46.87745285	-2.16624926e-06	1.0
[Kopf_002]
1	1.75259161	3.012944944e-05	0.2651725411	0.006653842982	-165.1497192	0.002556535648	1.0
2	1.75259161	3.012944944e-05	0.2651725411	0.006653842982	-165.1497192	0.002556535648	1.0
3	1.75259161	3.012944944e-05	0.2651725411	0.006653842982	-165.1497192	0.002556535648	1.0
[Kopf]
1	1.015781879	8.032657206e-08	9.111317922e-08	0.06872025877	123.2280426	-0.02605217695	1.0
2	1.015781879	8.032657206e-08	9.111317922e-08	0.06872025877	123.2280426	-0.02605217695	1.0
3	1.015781879	8.032657206e-08	9.111317922e-08	0.06872025877	123.2280426	-0.02605217695	1.0
[Unterkiefer]
1	0.6370437145	0.004552738741	0.4060620368	5.412721157	-68.3888092	-3.09354353	1.0
2	0.6370437145	0.004552738741	0.4060620368	5.412721157	-68.3888092	-3.09354353	1.0
3	0.6370437145	0.004552738741	0.4060620368	5.412721157	-68.3888092	-3.09354353	1.0
[Hals_fett]
1	0.2998299599	0.007747137919	0.1206380203	-5.071650982	-59.35961533	5.585566998	1.0
2	0.2998299599	0.007747137919	0.1206380203	-5.071650982	-59.35961533	5.585566998	1.0
3	0.2998299599	0.007747137919	0.1206380203	-5.071650982	-59.35961533	5.585566998	1.0
[Maulunten]
1	0.08317943662	-0.007747350261	-0.1206459776	-3.32220912	38.97271347	-0.871876061	1.0
2	0.08317943662	-0.007747350261	-0.1206459776	-3.32220912	38.97271347	-0.871876061	1.0
3	0.08317943662	-0.007747350261	-0.1206459776	-3.32220912	38.97271347	-0.871876061	1.0
[Mauloben]
1	0.910148263	0.0004056794569	0.4003701806	-0.1032674983	-28.77768707	0.03543139994	1.0
2	0.910148263	0.0004056794569	0.4003701806	-0.1032674983	-28.77768707	0.03543139994	1.0
3	0.910148263	0.0004056794569	0.4003701806	-0.1032674983	-28.77768707	0.03543139994	1.0
[MundW_L]
1	0.673060894	-0.3618556261	0.3751286268	-179.8370972	-17.94884872	24.71397209	1.0
2	0.673060894	-0.3618556261	0.3751286268	-179.8370972	-17.94884872	24.71397209	1.0
3	0.673060894	-0.3618556261	0.3751286268	-179.8370972	-17.94884872	24.71397209	1.0
[MundW_R]
1	0.6732318401	0.3627035022	0.37398085	179.6653442	-18.02427101	-24.69083977	1.0
2	0.6732318401	0.3627035022	0.37398085	179.6653442	-18.02427101	-24.69083977	1.0
3	0.6732318401	0.3627035022	0.37398085	179.6653442	-18.02427101	-24.69083977	1.0
[Augen_con]
1	1.807372689	-0.0001604028512	0.1835819334	0.09822253883	157.1545258	0.02385936864	1.0
2	1.807372689	-0.0001604028512	0.1835819334	0.09822253883	157.1545258	0.02385936864	1.0
3	1.807372689	-0.0001604028512	0.1835819334	0.09822253883	157.1545258	0.02385936864	1.0
[IK_Aug_R]
1	0.3461304307	0.2943200469	-8.032657206e-08	-0.4194762409	-4.963055134	165.6946411	1.0
2	0.3461304307	0.2943200469	-8.032657206e-08	-0.4194762409	-4.963055134	165.6946411	1.0
3	0.3461304307	0.2943200469	-8.032657206e-08	-0.4194762409	-4.963055134	165.6946411	1.0
[IK_Aug_L]
1	0.3461307883	-0.2943199575	-1.629814861e-08	0.4194769561	-4.963055134	-165.6946411	1.0
2	0.3461307883	-0.2943199575	-1.629814861e-08	0.4194769561	-4.963055134	-165.6946411	1.0
3	0.3461307883	-0.2943199575	-1.629814861e-08	0.4194769561	-4.963055134	-165.6946411	1.0
[Aug_R]
1	1.0351547	0.2207805812	-0.09605748951	176.004776	-17.29163933	12.85548019	1.0
2	1.0351547	0.2207805812	-0.09605748951	176.004776	-17.29163933	12.85548019	1.0
3	1.0351547	0.2207805812	-0.09605748951	176.004776	-17.29163933	12.85548019	1.0
[aug_L]
1	1.035044074	-0.2215988934	-0.09535883367	-176.1891022	-17.33178139	-12.83103275	1.0
2	1.035044074	-0.2215988934	-0.09535883367	-176.1891022	-17.33178139	-12.83103275	1.0
3	1.035044074	-0.2215988934	-0.09535883367	-176.1891022	-17.33178139	-12.83103275	1.0
[Ohr_L]
1	0.6407760978	-0.3659991622	-0.6893320084	-24.34924507	53.07766342	-15.02013397	1.0
2	0.6407760978	-0.3659991622	-0.6893320084	-24.34924507	53.07766342	-15.02013397	1.0
3	0.6407760978	-0.3659991622	-0.6893320084	-24.34924507	53.07766342	-15.02013397	1.0
[Ohr_R]
1	0.6409583092	0.3634999394	-0.6904845238	24.05786133	53.12416077	14.75857162	1.0
2	0.6409583092	0.3634999394	-0.6904845238	24.05786133	53.12416077	14.75857162	1.0
3	0.6409583092	0.3634999394	-0.6904845238	24.05786133	53.12416077	14.75857162	1.0
[Braun_O_L]
1	0.9801794291	-0.3706048727	-0.3292538524	-143.3172302	-34.69635391	52.39493942	1.0
2	0.9801794291	-0.3706048727	-0.3292538524	-143.3172302	-34.69635391	52.39493942	1.0
3	0.9801794291	-0.3706048727	-0.3292538524	-143.3172302	-34.69635391	52.39493942	1.0
[Braun_O_R]
1	0.9803634882	0.3690741956	-0.3304223716	143.1826782	-34.83971786	-52.3467598	1.0
2	0.9803634882	0.3690741956	-0.3304223716	143.1826782	-34.83971786	-52.3467598	1.0
3	0.9803634882	0.3690741956	-0.3304223716	143.1826782	-34.83971786	-52.3467598	1.0
[aug_lied_O_L]
1	1.038881421	-0.3271433711	-0.1608108282	-175.8613434	-20.15596199	60.31666946	1.0
2	1.038881421	-0.3271433711	-0.1608108282	-175.8613434	-20.15596199	60.31666946	1.0
3	1.038881421	-0.3271433711	-0.1608108282	-175.8613434	-20.15596199	60.31666946	1.0
[aug_lied_O_R]
1	1.039044261	0.3261157274	-0.1618429124	175.7657928	-20.31323814	-60.31218338	1.0
2	1.039044261	0.3261157274	-0.1618429124	175.7657928	-20.31323814	-60.31218338	1.0
3	1.039044261	0.3261157274	-0.1618429124	175.7657928	-20.31323814	-60.31218338	1.0
[aug_lied_U_L]
1	1.021915555	-0.3312865496	-0.1338484734	-159.8099365	-28.7482872	60.17461395	1.0
2	1.021915555	-0.3312865496	-0.1338484734	-159.8099365	-28.7482872	60.17461395	1.0
3	1.021915555	-0.3312865496	-0.1338484734	-159.8099365	-28.7482872	60.17461395	1.0
[aug_lied_U_R]
1	1.02207756	0.3303526342	-0.1348843277	159.7071381	-28.90532684	-60.15359116	1.0
2	1.02207756	0.3303526342	-0.1348843277	159.7071381	-28.90532684	-60.15359116	1.0
3	1.02207756	0.3303526342	-0.1348843277	159.7071381	-28.90532684	-60.15359116	1.0
[Bauch_003]
1	1.444672227	0.03385011479	-1.56629622	-3.870021374e-06	-137.6799469	1.039222207e-05	1.0
2	1.444672227	0.03385011479	-1.56629622	-3.870021374e-06	-137.6799469	1.039222207e-05	1.0
3	1.444672227	0.03385011479	-1.56629622	-3.870021374e-06	-137.6799469	1.039222207e-05	1.0
[Schalterplatte_L]
1	0.9800758362	-0.3790699244	-0.1091480851	-78.3680191	76.0636673	-107.6149673	1.0
2	0.9787844419	-0.3794746101	-0.1079287529	-77.59971619	76.11951447	-106.8503952	1.0
3	0.9755203724	-0.3798792362	-0.1047946587	-75.63038635	76.24811554	-104.8899536	1.0
[Oberarm_L]
1	1.418636918	9.313225746e-08	1.303851604e-07	-69.28526306	-64.34814453	84.17045593	1.0
2	1.418636918	9.313225746e-08	1.303851604e-07	-69.4497757	-64.37435913	84.35800171	1.0
3	1.418636918	9.313225746e-08	1.303851604e-07	-69.87531281	-64.44010162	84.84046936	1.0
[Unterarm_L]
1	2.028227806	1.885928214e-07	1.862644972e-08	12.99235821	72.84494781	13.75659561	1.0
2	2.028227806	1.885928214e-07	1.862644972e-08	12.93199825	72.76435852	13.68408775	1.0
3	2.028227806	1.885928214e-07	1.862644972e-08	12.76550102	72.5450058	13.48753452	1.0
[Vorderpfote_L]
1	1.705947399	2.607703209e-07	2.305023372e-07	0.4500680566	67.57064819	2.012538433	1.0
2	1.705947399	2.607703209e-07	2.305023372e-07	0.4783948958	68.12242126	2.028420925	1.0
3	1.705947399	2.607703209e-07	2.305023372e-07	0.5550922751	69.49965668	2.074056387	1.0
[Schalterplatte_R]
1	1.126118422	0.4077700973	0.1865276545	8.711277962	71.87341309	38.66228104	1.0
2	1.121698618	0.406930089	0.1839815378	8.93373394	72.04167175	39.00449371	1.0
3	1.110644341	0.4060900509	0.1775166094	9.611099243	72.50436401	39.99863434	1.0
[Oberarm_R]
1	1.418636441	2.235174179e-07	1.490116119e-07	91.74687958	-60.43120575	-109.9201889	1.0
2	1.418636441	2.235174179e-07	1.490116119e-07	92.76976013	-60.35735321	-111.1440811	1.0
3	1.418636441	2.235174179e-07	1.490116119e-07	95.32915497	-60.11697388	-114.2376251	1.0
[Unterarm_R]
1	2.028232098	1.350417733e-07	-7.450580597e-08	-6.006210804	58.96559143	-6.378308296	1.0
2	2.028232098	1.350417733e-07	-7.450580597e-08	-6.222414494	59.46614075	-6.618085861	1.0
3	2.028232098	1.350417733e-07	-7.450580597e-08	-6.872875214	60.7871933	-7.333522797	1.0
[Vorderpfote_R]
1	1.705937624	9.313230187e-09	7.101335342e-08	1.280291438	95.9458313	0.9536475539	1.0
2	1.705937624	9.313230187e-09	7.101335342e-08	1.834994316	94.77716827	1.64405942	1.0
3	1.705937624	9.313230187e-09	7.101335342e-08	-29.7761898	91.59992981	-29.61500359	1.0
[Schwanz]
1	-0.1725831926	-1.338776023e-08	0.1059697568	0.2005211115	-126.0980072	-0.6570925117	1.0
2	-0.1710730195	-1.338776023e-08	0.1051248759	0.1980375499	-126.0081558	-0.6464051008	1.0
3	-0.1672987789	-1.338776023e-08	0.1024135798	0.1916158199	-125.7828522	-0.6194375753	1.0
[Schwanz_001]
1	0.9104326963	6.926712359e-08	1.564329999e-09	-0.5222604275	-13.16420364	0.4549273551	1.0
2	0.9104326963	6.926712359e-08	1.564329999e-09	-0.5249964595	-13.06040955	0.4581582248	1.0
3	0.9104326963	6.926712359e-08	1.564329999e-09	-0.5318188071	-12.80017281	0.4662231207	1.0
[Schwanz_002]
1	0.7855662704	6.053597446e-08	1.369335223e-07	8.174235973e-07	-11.70931816	-2.724745229e-08	1.0
2	0.7855662704	6.053597446e-08	1.369335223e-07	-0.006973347627	-11.76771927	0.005308550317	1.0
3	0.7855662704	6.053597446e-08	1.369335223e-07	-0.02449794859	-11.91415024	0.01866779849	1.0
[Schwanz_003]
1	0.8350353241	6.286426668e-08	8.163624443e-08	-0.8730992079	-27.85033035	0.9648019075	1.0
2	0.8350353241	6.286426668e-08	8.163624443e-08	-0.838673532	-27.15745354	0.9304065704	1.0
3	0.8350353241	6.286426668e-08	8.163624443e-08	-0.7557015419	-25.41280174	0.8475139141	1.0
[Oberschenkel_L]
1	0.4639753997	-0.5837000012	0.1218086779	23.07064819	-73.60655975	-18.23400307	1.0
2	0.4681814313	-0.5837000012	0.1175442412	22.80682755	-73.37142944	-17.95879745	1.0
3	0.4787214398	-0.5837000012	0.1068540737	22.06780624	-72.65862274	-17.18533134	1.0
[Unterschenkel_L]
1	1.686439037	1.289299689e-07	0	-63.584095	-76.88671112	70.65477753	1.0
2	1.686439037	1.285060875e-07	9.552020286e-11	-66.10305786	-77.10992432	73.227211	1.0
3	1.686439037	1.280822346e-07	1.910404057e-10	-73.40074921	-77.52999878	80.67132568	1.0
[Pfote1_L]
1	1.190900326	1.303851604e-07	-1.65309757e-07	2.252731085	32.48854446	-5.930224895	1.0
2	1.190900326	1.309582842e-07	-1.638769476e-07	2.239503145	32.74263382	-5.954742908	1.0
3	1.190900326	1.31531408e-07	-1.624441524e-07	2.204837799	33.38950348	-6.017994881	1.0
[Pfote2_L]
1	0.9876256585	1.722946763e-07	-1.11758709e-07	38.0491333	99.08728027	32.79709625	1.0
2	0.9876256585	1.705275565e-07	-1.10134863e-07	37.03227615	99.4129715	31.74536133	1.0
3	0.9876256585	1.687604225e-07	-1.085110242e-07	34.90765381	100.2514267	29.52546692	1.0
[Oberschenkel_R]
1	0.7394316196	0.5837000608	0.07773604989	-10.33804703	-28.21118927	3.125200987	1.0
2	0.736934185	0.5837000608	0.07822073996	-10.35269356	-28.47485924	3.156014442	1.0
3	0.7305575013	0.5837000608	0.07981128246	-10.39196682	-29.16001701	3.237038851	1.0
[Unterschenkel_R]
1	1.686449051	1.11758709e-07	3.725289943e-08	-49.58572006	-111.8427505	34.29059601	1.0
2	1.686449051	1.11758709e-07	3.725289943e-08	-49.75343704	-111.7634964	34.45962143	1.0
3	1.686449051	1.11758709e-07	3.725289943e-08	-50.20059967	-111.5576553	34.90994644	1.0
[Pfote1_R]
1	1.190900326	2.176966518e-07	1.11758709e-07	-4.60566473	59.08541107	2.767781734	1.0
2	1.190900326	2.176966518e-07	1.11758709e-07	-4.620195866	59.16552734	2.75085187	1.0
3	1.190900326	2.176966518e-07	1.11758709e-07	-4.657690048	59.3697052	2.707255602	1.0
[Pfote2_R]
1	0.9876256585	1.024454832e-07	-4.656610209e-09	-86.33930969	98.84152222	-74.7061615	1.0
2	0.9876256585	1.024454832e-07	-4.656610209e-09	-85.78918457	98.80937195	-74.13687134	1.0
3	0.9876256585	1.024454832e-07	-4.656610209e-09	-84.32039642	98.73162842	-72.61897278	1.0
[EndOfFile]
